Patient4_TMGait_0pt4_02_right_02_EMG.mot
version=1
nRows=23
nColumns=33
inDegrees=no
endheader
time	1LAddLong	2LGlutMax	3LGlutMed	4LIliopsoas	5LSemiMemb	6LBicFemLong	7LRecFem	8LVastMed	9LVastLat	10LGasMed	11LTibAnt	12lTibPost	13LPeroneusLong	14LSol	15LExtDigLong	16LFlexDigLong	17RAddLong	18RGlutMax	19RGlutMed	20RIliopsoas	21RSemiMemb	22RBicFemLong	23RRecFem	24RVastMed	25RVastLat	26RGasMed	27RTibAnt	28RTibPost	29RPeroneusLong	30RSol	31RExtDigLong	32RFlexDigLong
2.85	0.024261	0.056	-0.007172	0.003357	0.002747	0.006866	-0.15518	0.028076	0.31601	0.006256	0.2771	0.00412	0.057068	0.15396	0.7074	0.003815	0.013275	-0.003204	-0.065613	0.1384	0.006561	0.094147	-0.27374	0.066071	0.030823	-0.040588	0.18768	-0.011597	-0.034485	0.11658	0.000916	-0.010529
2.851	-0.039215	0.096893	0.006561	-0.004578	-0.057526	0.11231	-0.10956	0.015717	0.23361	0.027924	0.16754	0.002289	0.038757	0.14008	-0.059509	0.000305	0.003204	-0.025482	-0.01236	0.15152	-0.007172	0.033875	-0.30746	0.050201	0.038147	0.004883	0.12146	-0.015259	-0.39032	0.090485	0.000458	-0.021057
2.852	-0.032806	0.13123	-0.028076	-0.004272	-0.074768	0.1799	-0.018158	-0.010376	-0.012512	0.003052	-0.11307	0.005341	0.08728	0.14862	-0.112	0.003204	-0.00351	-0.034027	-0.15213	0.1506	-0.010681	0.00412	-0.29617	0.045319	0.00946	0.014343	0.040588	0.005493	0.25345	0.013123	0.001373	-0.025787
2.853	-0.009918	0.14465	-0.020752	-0.000916	0.002594	0.21683	0.031281	-0.021362	-0.15411	-0.013885	-0.13931	0.004578	0.16052	0.15533	0.17899	0.010986	-0.008545	0.020752	0.045929	0.18585	0.002899	0.002289	-0.27283	-0.014496	0.005035	0.013428	0.034943	0.009613	0.90225	-0.060577	-0.000305	-0.023193
2.854	0.007019	0.19409	-0.002136	0.009003	0.090637	0.23697	0.056	-0.037079	-0.047302	-0.02594	-0.14984	0.008698	0.13626	0.060577	-0.45868	-0.005646	0.002899	-0.009003	0.14618	0.26276	-0.029297	-0.072021	-0.28412	-0.040283	-0.015259	0.003052	-0.039673	0.005646	1.0036	-0.049744	0.001678	-0.021973
2.855	-0.00824	0.21362	-0.029602	-0.004578	0.07843	0.21088	0.15625	-0.022736	-0.043945	0.008698	0.041504	-0.001678	0.007324	-0.034027	-0.448	0.005493	0.004425	-0.027008	-0.11261	0.16525	-0.030518	-0.09552	-0.26352	-0.004425	-0.018921	0.005188	-0.083923	-0.010071	0.35675	0.009308	-0.00061	-0.028229
2.856	-0.005951	0.22461	-0.037994	-0.022583	0.10788	-0.044556	0.11612	-0.012207	-0.04715	0.0383	0.009003	0.010071	-0.050964	-0.074921	0.057983	-0.009766	-0.000916	-0.011902	-0.2005	0.07309	-0.028687	-0.084534	-0.2623	-0.010071	-0.020142	0.006104	-0.077362	-0.002899	0.13245	0.04303	-0.000763	-0.025177
2.857	-0.002289	0.21316	0.019226	-0.026703	0.093079	-0.09613	0.078735	-0.014801	-0.001068	0.027313	-0.06958	0.019531	-0.009155	-0.10315	-0.40482	-0.007782	0.004578	-0.047455	-0.12375	0.00351	-0.028534	-0.11032	-0.28168	-0.005341	-0.016479	0.013733	-0.060425	-0.002899	0.10605	-0.02243	0.002136	-0.02655
2.858	0.004425	0.26047	0.071564	-0.028992	0.046539	0.093842	0.046692	0.002747	0.049896	0.027313	-0.096436	0.025177	-0.005798	-0.16983	-0.5275	-0.001526	-0.00473	-0.026245	-0.10483	-0.12512	-0.029602	-0.17151	-0.29617	0.037994	-0.021973	0.020294	-0.090637	-0.00351	0.08667	-0.05661	0.004272	-0.041199
2.859	-0.008392	0.22095	0.050507	0.011139	-0.037842	0.24246	0.023499	0.018311	0.046844	0.009918	-0.21805	0.0383	0.067291	-0.12054	-0.14343	-0.007172	-0.004272	-0.040131	-0.21179	-0.13229	-0.021057	-0.16357	-0.31708	0.033417	0.002594	-0.016327	-0.07431	-0.003967	0.030975	-0.069885	-0.000153	-0.022583
2.86	-0.011597	0.19455	0.022278	0.013428	-0.08194	0.20554	0.037079	0.000153	0.033264	-0.015411	-0.14358	0.03952	0.06958	-0.036011	-0.030212	-0.010529	-0.012054	-0.019684	-0.085907	-0.1532	0.023651	-0.070038	-0.35736	0.056458	-0.008087	-0.014191	0.012054	-0.009766	-0.18707	-0.033264	-0.001526	-0.029144
2.861	-0.00946	0.20737	0.005035	0.007782	-0.1593	0.017548	0.043182	0.001831	0.080719	0.023956	-0.045013	0.038452	-0.00412	-0.013733	0.12589	-0.020599	-0.005035	-0.032349	0.014191	-0.018921	0.042877	-0.027771	-0.35736	0.061188	-0.00412	-0.004272	0.046844	-0.010376	-0.62271	0.004578	0.005493	-0.02594
2.862	0.004578	0.17441	-0.037537	-0.01297	-0.097351	-0.18707	0.006104	-0.01236	0.045166	0.005188	0.006866	0.056305	-0.041504	-0.018311	0.1294	-0.015564	-0.00473	-0.036011	0.029297	0.057831	0.046082	-0.064392	-0.34256	0.032654	-0.012512	-0.079041	0.085449	-0.01709	-0.37094	0.11643	-0.001526	-0.021973
2.863	0.007172	0.14694	-0.049133	-0.032654	0.028381	-0.50018	-0.009003	-0.011444	0.03418	0.004425	0.011444	0.081177	-0.057373	-0.028381	0.10788	-0.00824	0.000305	-0.023193	0.031128	-0.028839	0.041962	-0.12558	-0.29892	0.007935	-0.015106	-0.068207	0.099945	-0.014954	0.20737	0.15442	0.000153	-0.01358
2.864	-0.003357	0.079193	-0.079041	-0.013885	0.045624	-0.43915	-0.011292	-0.00061	0.0354	-0.002899	-0.007935	0.087585	-0.028839	-0.016632	0.112	0.009766	-0.046234	-0.008392	-0.12741	-0.077972	0.041656	-0.084076	-0.32028	-0.033264	-0.018921	-0.063477	0.063782	-0.019989	0.077515	0.00412	-0.002136	-0.019989
2.865	0.00351	0.099487	-0.076904	-0.016479	0.070801	-0.24338	-0.003357	-0.00351	0.12589	0.035858	0.030823	0.093842	-0.018768	-0.036926	0.084991	0.019379	-0.061951	0.033569	-0.24033	-0.16113	0.055084	0.097198	-0.29221	-0.049591	-0.018768	0.034943	0.055237	-0.010071	0.24338	-0.10071	-0.001373	-0.015106
2.866	0.007477	0.10666	-0.048676	-0.005188	0.082855	-0.044708	-0.058746	0.008087	0.21576	0.04364	0.012817	0.10666	-0.014648	-0.032349	0.092468	0.011749	-0.054626	-0.044098	-0.009003	-0.29114	0.042114	0.20233	-0.28259	-0.07843	-0.00824	0.011597	0.037537	0.018616	0.38025	-0.20981	0.001373	-0.019836
2.867	0.004883	0.13931	-0.004883	0.002899	0.11063	0.13168	-0.061951	0.000916	0.2507	0.039368	0.00946	0.06134	-0.02655	-0.075989	0.10437	0.011749	-0.032043	-0.061646	0.074158	-0.27679	0.041809	0.19867	-0.24689	-0.08667	-0.017395	-0.013123	0.027924	0.040588	0.20538	-0.18875	0.004883	-0.020142
2.868	0.007629	0.13062	0.024719	0.011902	0.072479	0.22385	-0.12421	0.007019	0.16769	0.028229	-0.002136	0.084076	-0.014343	-0.092926	0.11414	0.029755	0.014801	-0.13229	-0.088348	-0.094757	0.024567	0.19486	-0.28748	-0.085297	-0.027161	-0.002289	0.03006	0.016022	0.12558	0.1712	0.000153	-0.019379
2.869	0.008698	0.15472	0.085907	0.011139	-0.002747	0.37308	-0.1265	0.011902	0.12787	0.023041	-0.010986	0.12314	0.008698	-0.057373	0.078888	0.038147	0.081024	-0.07843	-0.1033	0.010071	0.032654	0.13626	-0.26199	-0.079651	-0.024567	0.015106	0.039368	-0.006866	-0.075989	0.36285	0.000916	-0.022125
2.87	0.009918	0.15503	0.13977	0.006561	-0.052795	0.31113	-0.17075	0.015106	0.12253	0.022278	-0.017242	0.096588	-0.003204	-0.027161	0.058899	0.029755	0.10468	-0.092468	-0.041962	0.011749	0.032196	0.11749	-0.28336	-0.02594	-0.003357	-0.000916	0.074463	-0.011597	-0.1918	0.20584	0.000763	-0.016174
2.871	0.005035	0.14893	0.12589	0.007019	-0.077057	0.25665	-0.19867	0.011139	0.11063	0.026703	0.025787	0.078125	-0.025787	0.029297	0.060577	0.03479	0.098572	-0.083313	-0.085297	-0.005493	0.065918	0.06073	-0.2948	-0.007629	-0.020294	-0.00061	0.041809	-0.00885	-0.14343	0.063934	-0.001526	-0.020752
2.872	-0.01236	0.10651	0.15854	-0.003357	-0.048065	0.19943	-0.14023	0.012512	-0.015564	0.033112	0.068359	0.073853	-0.006714	0.060425	0.078125	0.020752	0.079803	-0.086365	-0.068207	-0.049438	0.054779	-0.016632	-0.27939	0.001373	-0.027466	0.004272	0.012665	-0.006866	-0.046082	-0.005341	-0.001526	-0.02121
